<?xml version="1.0" encoding="UTF-8" standalone="no"?>
<svg xmlns:xlink="http://www.w3.org/1999/xlink" height="210.55px" width="288.3px" xmlns="http://www.w3.org/2000/svg">
  <g transform="matrix(1.0, 0.0, 0.0, 1.0, -27.05, -19.2)">
    <path d="M287.55 63.75 Q285.75 55.75 287.0 47.25 L299.65 44.6 299.75 44.7 Q295.35 59.55 297.35 68.65 L289.4 69.7 288.5 67.15 287.55 63.75 M56.55 44.2 L54.6 44.5 55.15 47.55 Q56.55 57.6 53.65 66.95 L52.85 69.45 45.0 66.8 Q46.25 58.1 42.3 44.7 L46.05 39.9 46.35 40.05 56.55 44.2 M41.5 86.05 Q40.0 88.85 39.05 91.65 36.35 99.5 37.45 107.7 50.05 112.65 68.75 114.6 L64.15 115.05 Q57.7 115.5 50.4 115.25 L39.05 114.6 40.3 118.15 41.1 119.95 41.35 120.7 41.3 124.9 33.4 123.7 33.3 124.4 33.05 123.65 Q27.25 107.15 29.45 96.65 30.95 89.9 34.9 83.9 L41.5 86.05 M37.5 142.5 Q36.3 156.95 46.8 170.25 49.0 173.05 51.7 175.85 54.6 181.9 55.55 188.25 L55.95 192.7 Q56.2 198.35 55.0 204.25 L57.15 204.6 Q68.5 207.0 77.1 217.3 84.75 211.15 94.6 210.1 132.5 206.7 171.7 207.7 210.35 206.7 248.25 210.1 258.1 211.15 265.75 217.3 274.3 207.0 285.7 204.6 L287.8 204.25 Q284.8 189.25 291.1 175.85 L296.1 170.25 Q299.1 166.45 301.15 162.55 L293.45 161.35 303.25 157.9 Q304.55 154.4 305.15 150.8 L289.2 147.85 305.55 143.9 305.25 140.3 312.95 139.25 Q314.15 146.55 312.9 152.15 310.55 163.0 302.0 171.85 L300.45 173.7 Q293.9 183.05 300.1 204.1 L295.65 209.8 286.75 210.1 Q274.95 212.4 272.5 226.0 L271.5 226.45 267.8 227.65 266.7 227.35 265.9 226.45 Q254.0 214.9 189.9 215.1 L179.2 215.1 172.45 215.35 171.0 215.35 163.6 215.1 152.9 215.1 Q88.8 214.9 76.9 226.45 L75.9 227.95 71.35 226.45 70.3 226.0 Q67.85 212.35 56.1 210.1 L47.2 209.8 42.7 204.1 Q48.9 183.05 42.4 173.7 L40.8 171.85 Q32.25 163.0 29.9 152.15 28.8 147.05 29.5 140.65 L37.5 142.5 M301.55 125.9 L301.3 120.5 Q303.95 114.55 304.75 108.75 L305.1 104.8 Q305.45 94.75 300.25 85.3 L307.15 83.85 Q311.05 89.85 312.55 96.65 314.8 107.2 308.85 124.25 L308.95 124.55 308.9 124.55 301.55 125.9" fill="#64462f" fill-rule="evenodd" stroke="none"/>
    <path d="M287.0 47.25 Q287.15 45.85 287.45 44.5 L285.3 44.1 Q273.95 41.7 265.35 31.45 257.7 37.65 247.85 38.6 209.9 42.05 171.25 41.05 132.15 42.05 94.2 38.6 84.4 37.65 76.75 31.45 68.05 41.75 56.7 44.15 L56.55 44.2 46.35 40.05 46.75 39.0 55.65 38.75 Q67.4 36.45 69.9 22.8 L70.95 22.35 Q73.85 21.3 75.35 21.0 L76.55 22.35 Q88.4 33.9 152.5 33.7 L163.2 33.7 170.6 33.45 172.05 33.45 178.8 33.7 189.5 33.7 Q253.6 33.9 265.5 22.35 L266.3 21.45 266.3 21.35 Q268.15 21.3 271.0 22.35 271.6 22.5 272.1 22.8 274.55 36.4 286.35 38.75 L295.2 39.0 299.65 44.6 287.0 47.25 M52.15 71.15 L51.9 71.8 51.35 72.9 Q48.65 75.6 46.45 78.4 43.5 82.2 41.5 86.05 L34.9 83.9 Q37.2 80.25 40.4 76.95 L42.05 74.95 Q44.35 71.65 45.0 66.8 L52.85 69.45 52.15 71.15 M41.3 124.9 L41.25 128.35 Q38.05 135.55 37.5 142.5 L29.5 140.65 Q30.3 133.35 33.3 124.4 L33.4 123.7 41.3 124.9 M305.25 140.3 Q304.4 134.35 301.6 128.2 L301.55 125.9 308.9 124.55 308.95 124.55 Q311.9 132.6 312.95 139.25 L305.25 140.3 M297.35 68.65 Q298.1 72.35 300.05 75.1 L301.55 76.95 Q304.75 80.25 307.15 83.85 L300.25 85.3 Q298.35 81.85 295.65 78.5 293.45 75.65 290.7 72.9 L289.4 69.7 297.35 68.65" fill="#775338" fill-rule="evenodd" stroke="none"/>
    <path d="M285.65 63.85 Q284.65 57.35 285.65 50.55 285.8 49.2 286.1 47.8 L284.0 47.45 Q272.6 45.05 264.05 34.8 256.4 40.95 246.55 41.95 208.6 45.35 169.95 44.35 130.8 45.35 92.85 41.95 83.05 40.95 75.4 34.8 66.7 45.05 55.35 47.5 L55.2 47.5 55.15 47.55 54.6 44.5 56.55 44.2 56.7 44.15 Q68.05 41.75 76.75 31.45 84.4 37.65 94.2 38.6 132.15 42.05 171.25 41.05 209.9 42.05 247.85 38.6 257.7 37.65 265.35 31.45 273.95 41.7 285.3 44.1 L287.45 44.5 Q287.15 45.85 287.0 47.25 285.75 55.75 287.55 63.75 L285.65 63.85 M64.15 115.05 L68.7 114.95 Q55.5 119.25 40.3 118.15 L39.05 114.6 50.4 115.25 Q57.7 115.5 64.15 115.05 M301.3 120.5 Q303.5 114.55 303.8 108.75 L303.8 104.85 Q303.3 96.55 298.9 88.65 297.0 85.2 294.35 81.8 L289.4 76.25 288.05 73.05 Q286.95 70.1 286.25 67.05 L288.5 67.15 289.4 69.7 290.7 72.9 Q293.45 75.65 295.65 78.5 298.35 81.85 300.25 85.3 305.45 94.75 305.1 104.8 L304.75 108.75 Q303.95 114.55 301.3 120.5" fill="#bd8b63" fill-rule="evenodd" stroke="none"/>
    <path d="M55.15 47.55 L55.2 47.5 55.35 47.5 Q66.7 45.05 75.4 34.8 83.05 40.95 92.85 41.95 130.8 45.35 169.95 44.35 208.6 45.35 246.55 41.95 256.4 40.95 264.05 34.8 272.6 45.05 284.0 47.45 L286.1 47.8 Q285.8 49.2 285.65 50.55 284.65 57.35 285.65 63.85 L252.75 65.6 286.25 67.05 Q286.95 70.1 288.05 73.05 L289.4 76.25 294.35 81.8 Q297.0 85.2 298.9 88.65 303.3 96.55 303.8 104.85 L107.3 111.0 303.8 108.75 Q303.5 114.55 301.3 120.5 L301.55 125.9 301.6 128.2 Q304.4 134.35 305.25 140.3 L305.55 143.9 289.2 147.85 289.2 146.55 51.4 152.5 305.15 150.8 Q304.55 154.4 303.25 157.9 L293.45 161.35 301.15 162.55 Q299.1 166.45 296.1 170.25 L291.1 175.85 Q284.8 189.25 287.8 204.25 L285.7 204.6 Q274.3 207.0 265.75 217.3 258.1 211.15 248.25 210.1 210.35 206.7 171.7 207.7 132.5 206.7 94.6 210.1 84.75 211.15 77.1 217.3 68.5 207.0 57.15 204.6 L55.0 204.25 Q56.2 198.35 55.95 192.7 L265.55 185.35 55.55 188.25 Q54.6 181.9 51.7 175.85 49.0 173.05 46.8 170.25 36.3 156.95 37.5 142.5 38.05 135.55 41.25 128.35 L41.3 124.9 41.35 120.7 41.1 119.95 40.3 118.15 Q55.5 119.25 68.7 114.95 L64.15 115.05 68.75 114.6 Q50.05 112.65 37.45 107.7 36.35 99.5 39.05 91.65 40.0 88.85 41.5 86.05 43.5 82.2 46.45 78.4 48.65 75.6 51.35 72.9 L51.9 71.8 52.15 71.15 233.0 67.95 53.65 66.95 Q56.55 57.6 55.15 47.55" fill="#8a6344" fill-rule="evenodd" stroke="none"/>
    <path d="M285.65 63.85 L287.55 63.75 288.5 67.15 286.25 67.05 252.75 65.6 285.65 63.85 M53.65 66.95 L233.0 67.95 52.15 71.15 52.85 69.45 53.65 66.95 M55.55 188.25 L265.55 185.35 55.95 192.7 55.55 188.25 M305.15 150.8 L51.4 152.5 289.2 146.55 289.2 147.85 305.15 150.8 M303.8 108.75 L107.3 111.0 303.8 104.85 303.8 108.75" fill="#7e5c40" fill-rule="evenodd" stroke="none"/>
    <path d="M46.05 39.9 L46.75 39.0 46.35 40.05 46.05 39.9" fill="#a68546" fill-rule="evenodd" stroke="none"/>
    <path d="M299.65 44.6 L299.75 44.7 Q295.35 59.55 297.35 68.65 298.1 72.35 300.05 75.1 L301.55 76.95 Q304.75 80.25 307.15 83.85 311.05 89.85 312.55 96.65 314.8 107.2 308.85 124.25 L308.95 124.55 Q311.9 132.6 312.95 139.25 314.15 146.55 312.9 152.15 310.55 163.0 302.0 171.85 L300.45 173.7 Q293.9 183.05 300.1 204.1 L295.65 209.8 286.75 210.1 Q274.95 212.4 272.5 226.0 L271.5 226.45 267.8 227.65 M266.7 227.35 L265.9 226.45 Q254.0 214.9 189.9 215.1 L179.2 215.1 172.45 215.35 171.0 215.35 163.6 215.1 152.9 215.1 Q88.8 214.9 76.9 226.45 L75.9 227.95 71.35 226.45 70.3 226.0 Q67.85 212.35 56.1 210.1 L47.2 209.8 42.7 204.1 Q48.9 183.05 42.4 173.7 L40.8 171.85 Q32.25 163.0 29.9 152.15 28.8 147.05 29.5 140.65 30.3 133.35 33.3 124.4 L33.05 123.65 Q27.25 107.15 29.45 96.65 30.95 89.9 34.9 83.9 37.2 80.25 40.4 76.95 L42.05 74.95 Q44.35 71.65 45.0 66.8 46.25 58.1 42.3 44.7 L46.05 39.9 46.75 39.0 55.65 38.75 Q67.4 36.45 69.9 22.8 L70.95 22.35 Q73.85 21.3 75.35 21.0 L76.55 22.35 Q88.4 33.9 152.5 33.7 L163.2 33.7 170.6 33.45 172.05 33.45 178.8 33.7 189.5 33.7 Q253.6 33.9 265.5 22.35 L266.3 21.45 M266.3 21.35 Q268.15 21.3 271.0 22.35 271.6 22.5 272.1 22.8 274.55 36.4 286.35 38.75 L295.2 39.0 299.65 44.6 Z" fill="none" stroke="#382312" stroke-linecap="round" stroke-linejoin="round" stroke-width="3.6"/>
  </g>
</svg>
