<?xml version="1.0" encoding="UTF-8" standalone="no"?>
<svg xmlns:xlink="http://www.w3.org/1999/xlink" height="105.0px" width="273.4px" xmlns="http://www.w3.org/2000/svg">
  <g transform="matrix(1.0, 0.0, 0.0, 1.0, 131.6, 44.5)">
    <path d="M60.0 -11.05 Q60.0 -9.8 58.8 -9.8 L36.9 -9.8 Q35.65 -9.8 35.65 -11.05 L35.65 -42.8 Q35.65 -44.1 36.9 -44.1 L58.8 -44.1 Q60.0 -44.1 60.0 -42.8 L60.0 -36.45 Q60.0 -35.2 58.8 -35.2 L46.7 -35.2 46.7 -31.2 56.15 -31.2 Q57.4 -31.2 57.4 -29.95 L57.4 -23.55 Q57.4 -22.3 56.15 -22.3 L46.7 -22.3 46.7 -18.7 58.8 -18.7 Q60.0 -18.7 60.0 -17.45 L60.0 -11.05 M32.4 -41.7 L31.7 -10.3 Q31.7 -9.1 30.55 -9.05 L22.75 -8.9 Q22.25 -8.9 21.9 -9.3 21.55 -9.7 21.55 -10.2 L21.95 -41.9 Q21.95 -43.2 23.15 -43.2 L31.25 -43.05 Q32.45 -43.0 32.4 -41.7 M19.6 -33.9 Q19.6 -32.65 18.25 -32.65 L12.2 -32.65 12.4 -9.5 Q12.4 -8.25 11.15 -8.2 L2.5 -8.05 Q1.2 -8.0 1.2 -9.3 L1.2 -32.65 -5.8 -32.65 Q-7.05 -32.65 -7.05 -33.9 L-7.05 -40.3 Q-7.05 -41.55 -5.8 -41.55 L18.25 -41.55 Q19.6 -41.55 19.6 -40.3 L19.6 -33.9 M90.25 -36.95 Q90.25 -36.45 89.95 -36.1 L84.5 -29.75 Q84.15 -29.3 83.6 -29.3 L80.5 -31.05 Q77.5 -32.8 74.9 -32.8 73.45 -32.8 73.45 -32.05 73.45 -31.6 75.55 -30.8 83.0 -27.85 84.95 -26.6 89.9 -23.4 89.9 -18.35 89.9 -12.6 85.4 -9.85 81.7 -7.65 75.55 -7.65 71.95 -7.65 68.15 -9.3 64.15 -11.05 62.05 -13.75 61.75 -14.15 61.75 -14.6 61.75 -15.1 62.05 -15.45 L67.45 -21.55 Q67.85 -22.0 68.45 -22.0 L71.65 -20.25 Q74.75 -18.55 76.75 -18.55 78.55 -18.55 78.55 -19.45 78.55 -20.0 76.45 -20.75 L70.75 -22.6 Q62.05 -25.9 62.05 -33.15 62.05 -37.75 67.1 -41.0 71.5 -43.85 76.45 -43.85 80.05 -43.85 83.85 -42.2 87.85 -40.5 89.95 -37.75 L90.25 -36.95 M131.6 -36.95 Q131.6 -36.45 131.3 -36.1 L125.85 -29.75 Q125.5 -29.3 124.95 -29.3 L121.85 -31.05 Q118.85 -32.8 116.25 -32.8 114.8 -32.8 114.8 -32.05 114.8 -31.6 116.9 -30.8 124.35 -27.85 126.3 -26.6 131.25 -23.4 131.25 -18.35 131.25 -12.6 126.75 -9.85 123.05 -7.65 116.9 -7.65 113.3 -7.65 109.5 -9.3 105.5 -11.05 103.4 -13.75 103.1 -14.15 103.1 -14.6 103.1 -15.1 103.4 -15.45 L108.8 -21.55 Q109.2 -22.0 109.8 -22.0 L113.0 -20.25 Q116.1 -18.55 118.1 -18.55 119.9 -18.55 119.9 -19.45 119.9 -20.0 117.8 -20.75 115.85 -21.3 112.1 -22.6 103.4 -25.9 103.4 -33.15 103.4 -37.75 108.45 -41.0 112.85 -43.85 117.8 -43.85 121.4 -43.85 125.2 -42.2 129.2 -40.5 131.3 -37.75 L131.6 -36.95 M100.4 -43.05 L100.05 -29.85 Q100.05 -28.45 97.45 -28.45 L94.1 -28.6 Q92.95 -28.7 92.95 -29.9 L93.2 -43.2 Q93.2 -44.5 95.55 -44.5 L99.35 -44.25 Q100.4 -44.2 100.4 -43.05 M80.9 40.5 Q80.95 41.65 79.7 41.75 L71.85 42.3 Q71.3 42.35 70.9 41.95 70.5 41.55 70.5 41.0 L70.2 27.5 66.6 40.25 Q66.3 41.2 65.35 41.2 L60.5 41.2 Q59.6 41.2 59.3 40.25 L55.65 27.45 55.35 41.0 Q55.3 42.45 52.5 42.45 L46.2 41.95 Q44.9 41.85 44.95 40.65 L46.25 9.6 Q46.3 8.4 47.55 8.4 L56.7 8.45 Q57.55 8.45 57.85 9.25 L62.95 24.6 68.0 9.3 Q68.3 8.45 69.2 8.45 L78.35 8.4 Q79.55 8.4 79.6 9.6 L80.9 40.5 M43.2 26.85 Q43.2 33.9 39.05 39.0 34.55 44.5 27.7 44.5 19.7 44.5 15.15 39.55 10.7 34.75 10.7 26.7 10.7 18.85 15.35 13.55 20.2 8.05 28.0 8.05 34.95 8.05 39.3 14.15 43.2 19.65 43.2 26.85 M32.65 27.1 Q32.65 24.5 31.25 22.4 29.65 20.0 27.15 20.0 24.65 20.0 23.1 22.4 21.7 24.5 21.7 27.1 21.7 29.7 23.1 31.8 24.65 34.2 27.15 34.2 29.65 34.2 31.25 31.85 32.65 29.7 32.65 27.1 M8.9 25.95 Q8.9 36.15 0.1 40.85 -6.75 44.55 -17.85 44.55 -19.15 44.55 -19.15 43.25 L-19.15 8.65 Q-19.15 7.4 -17.85 7.4 -6.75 7.4 0.1 11.1 8.9 15.8 8.9 25.95 M-103.1 -36.95 Q-103.1 -36.45 -103.4 -36.1 L-108.85 -29.75 Q-109.2 -29.3 -109.75 -29.3 L-112.85 -31.05 Q-115.85 -32.8 -118.45 -32.8 -119.9 -32.8 -119.9 -32.05 -119.9 -31.6 -117.8 -30.8 -110.35 -27.85 -108.4 -26.6 -103.45 -23.4 -103.45 -18.35 -103.45 -12.6 -107.95 -9.85 -111.65 -7.65 -117.8 -7.65 -121.4 -7.65 -125.2 -9.3 -129.2 -11.05 -131.3 -13.75 L-131.6 -14.6 -131.3 -15.45 -125.9 -21.55 Q-125.5 -22.0 -124.9 -22.0 L-121.7 -20.25 Q-118.6 -18.55 -116.6 -18.55 -114.8 -18.55 -114.8 -19.45 -114.8 -20.0 -116.9 -20.75 -118.85 -21.3 -122.6 -22.6 -131.3 -25.9 -131.3 -33.15 -131.3 -37.75 -126.25 -41.0 -121.85 -43.85 -116.9 -43.85 -113.3 -43.85 -109.5 -42.2 -105.5 -40.5 -103.4 -37.75 -103.1 -37.4 -103.1 -36.95 M-71.8 -42.75 L-72.1 -11.4 Q-72.1 -10.2 -73.35 -10.15 L-81.75 -9.8 Q-83.0 -9.75 -83.05 -11.05 L-83.05 -20.8 -89.3 -20.8 -89.4 -11.4 Q-89.4 -10.25 -90.6 -10.15 L-97.3 -9.6 Q-100.35 -9.6 -100.35 -11.05 L-100.35 -42.8 Q-100.35 -44.1 -99.05 -44.1 L-90.3 -44.05 Q-89.05 -44.05 -89.05 -42.75 L-89.2 -29.8 -83.05 -29.8 -83.05 -42.8 Q-83.05 -44.1 -81.75 -44.1 L-73.1 -44.05 Q-71.8 -44.05 -71.8 -42.75 M-37.05 -24.85 Q-37.05 -17.8 -41.2 -12.7 -45.7 -7.2 -52.55 -7.2 -60.55 -7.2 -65.1 -12.15 -69.55 -16.95 -69.55 -25.0 -69.55 -32.85 -64.9 -38.15 -60.05 -43.65 -52.25 -43.65 -45.3 -43.65 -40.95 -37.55 -37.05 -32.05 -37.05 -24.85 M-47.6 -24.6 Q-47.6 -27.2 -49.0 -29.3 -50.6 -31.7 -53.1 -31.7 -55.6 -31.7 -57.15 -29.3 -58.55 -27.2 -58.55 -24.6 -58.55 -22.0 -57.15 -19.9 -55.6 -17.5 -53.1 -17.5 -50.6 -17.5 -49.0 -19.85 -47.6 -22.0 -47.6 -24.6 M-6.1 -9.75 Q-6.1 -8.55 -7.3 -8.5 L-16.5 -8.1 Q-17.2 -8.05 -17.6 -8.65 L-22.85 -15.65 -22.8 -13.75 -22.7 -11.95 Q-22.7 -8.95 -24.1 -8.75 L-26.5 -8.55 -31.4 -8.1 Q-34.1 -8.1 -34.15 -9.5 L-34.3 -42.2 Q-34.3 -43.1 -33.35 -43.4 L-25.65 -44.05 Q-15.55 -44.05 -11.15 -39.05 -8.0 -35.5 -8.0 -30.65 -8.0 -24.05 -13.3 -19.85 L-6.4 -10.55 Q-6.1 -10.15 -6.1 -9.75 M-19.05 -29.25 Q-19.05 -32.35 -22.6 -32.95 L-22.7 -25.25 Q-19.05 -26.15 -19.05 -29.25 M-2.65 25.95 Q-2.65 23.55 -3.85 21.55 -5.15 19.2 -7.3 18.8 L-7.3 33.1 Q-5.1 32.75 -3.8 30.4 -2.65 28.4 -2.65 25.95 M-21.9 38.4 Q-21.85 38.85 -22.25 39.3 -23.8 41.2 -27.6 42.3 -30.8 43.2 -33.8 43.2 -41.8 43.2 -46.7 38.55 -51.6 33.8 -51.6 25.85 -51.6 16.1 -44.85 10.9 -38.75 6.2 -28.7 6.2 -27.15 6.2 -26.9 7.25 L-26.35 10.25 Q-25.55 14.35 -25.55 15.5 -25.55 17.55 -26.9 17.55 L-27.9 17.5 -28.9 17.45 Q-33.85 17.45 -36.8 19.35 -40.35 21.6 -40.35 26.3 -40.35 32.7 -35.0 32.7 L-33.05 32.5 -33.15 29.75 -35.45 29.95 Q-37.9 29.95 -37.9 28.3 L-37.9 26.95 -37.95 25.65 Q-37.95 22.85 -36.6 22.75 L-23.75 21.85 Q-22.45 21.8 -22.4 23.1 L-21.9 38.4 M-53.85 10.05 L-54.15 41.5 Q-54.15 42.7 -55.35 42.75 L-63.4 43.05 Q-64.25 43.1 -64.6 42.35 L-71.9 26.6 -72.05 41.55 Q-72.05 42.6 -73.25 42.75 L-79.55 43.2 Q-82.4 43.2 -82.4 41.8 L-82.4 10.1 Q-82.4 8.5 -78.75 8.5 L-72.7 8.85 Q-71.95 8.9 -71.6 9.55 L-64.45 25.1 -64.45 10.05 Q-64.45 8.5 -60.95 8.5 L-55.15 8.8 Q-53.85 8.85 -53.85 10.05 M-98.0 11.05 Q-98.0 11.45 -98.15 11.75 L-107.3 25.45 Q-98.8 40.55 -98.8 41.05 -98.8 42.3 -100.0 42.35 L-109.9 42.8 Q-110.75 42.8 -111.1 42.05 L-116.0 31.75 -116.05 40.0 Q-116.1 41.15 -117.25 41.2 L-126.6 41.8 Q-127.8 41.8 -127.85 40.55 L-128.0 10.25 Q-128.0 9.0 -126.7 9.0 L-117.05 8.95 Q-116.55 8.95 -116.15 9.3 -115.75 9.65 -115.8 10.2 L-115.9 20.05 -110.0 10.15 Q-109.6 9.5 -108.85 9.5 L-99.15 9.75 Q-98.0 9.8 -98.0 11.05 M-85.15 10.0 L-85.85 41.4 Q-85.85 42.6 -87.0 42.65 L-94.8 42.8 Q-95.3 42.8 -95.65 42.4 L-96.0 41.5 -95.6 9.8 Q-95.6 8.5 -94.4 8.5 L-86.3 8.65 Q-85.1 8.7 -85.15 10.0" fill="#f3c24e" fill-rule="evenodd" stroke="none"/>
    <path d="M141.55 26.0 Q140.0 36.2 127.1 40.1 L121.1 41.65 Q116.85 42.8 115.85 43.5 L134.25 46.3 Q136.05 46.6 135.75 48.45 L134.15 58.95 Q133.9 60.75 132.1 60.45 L97.9 55.25 Q96.1 54.95 96.35 53.15 L96.9 49.4 97.45 45.7 Q99.7 31.0 118.35 27.45 124.9 26.25 125.05 25.25 125.3 23.65 122.75 23.25 119.95 22.85 116.65 24.2 L111.15 26.75 109.85 26.85 Q109.0 26.75 108.6 26.1 L102.35 14.9 Q102.1 14.45 102.2 13.85 102.25 13.3 102.65 12.75 106.25 9.0 112.4 7.0 118.4 5.15 123.7 5.95 132.85 7.35 137.6 12.0 142.9 17.2 141.55 26.0" fill="#ff9900" fill-rule="evenodd" stroke="none"/>
  </g>
</svg>
