<?xml version="1.0" encoding="UTF-8" standalone="no"?>
<svg xmlns:xlink="http://www.w3.org/1999/xlink" height="96.4px" width="273.85px" xmlns="http://www.w3.org/2000/svg">
  <g transform="matrix(1.0, 0.0, 0.0, 1.0, 130.5, 46.7)">
    <path d="M58.4 -46.7 Q62.1 -44.7 58.15 -43.75 53.65 -42.6 48.95 -42.1 41.8 -41.35 35.2 -43.1 34.6 -43.25 34.75 -44.05 35.0 -45.55 36.6 -45.65 L58.4 -46.7 M12.3 -43.75 Q17.55 -45.0 20.7 -42.25 21.8 -44.85 25.45 -44.3 L29.35 -44.15 Q33.7 -45.4 33.85 -41.95 33.95 -40.75 32.75 -40.5 26.6 -39.2 21.5 -41.05 21.5 -40.65 21.0 -40.2 19.6 -39.05 17.65 -39.25 11.6 -39.75 5.6 -38.95 -0.85 -38.05 -6.7 -39.85 -7.3 -40.05 -7.2 -40.8 -6.9 -42.3 -5.35 -42.4 L12.3 -43.75 M73.9 -32.95 Q85.95 -31.5 91.0 -21.15 91.9 -19.3 91.05 -17.7 89.9 -15.65 88.4 -17.7 87.1 -19.45 85.95 -21.35 83.4 -25.7 78.55 -27.45 75.4 -28.6 72.7 -30.25 71.75 -30.85 72.35 -31.9 72.9 -32.9 73.9 -32.95 M74.55 -45.45 Q87.0 -47.0 91.3 -36.55 92.15 -34.45 89.85 -34.5 87.65 -34.5 86.95 -36.65 85.9 -39.8 82.4 -40.6 73.95 -42.45 66.1 -39.3 65.5 -39.05 65.45 -39.85 65.35 -43.4 69.5 -44.4 L74.55 -45.45 M48.5 -32.7 Q53.55 -33.1 58.2 -32.0 59.4 -31.75 59.25 -30.5 59.1 -28.85 57.4 -28.8 L48.55 -29.2 Q45.95 -29.5 47.05 -31.7 47.5 -32.65 48.5 -32.7 M48.05 -20.2 Q55.15 -21.05 61.15 -18.55 61.8 -18.25 61.4 -17.5 60.2 -15.2 57.25 -15.85 55.35 -16.25 53.45 -15.85 49.75 -15.1 46.95 -16.95 45.25 -18.05 46.65 -19.55 47.25 -20.2 48.05 -20.2 M116.2 -45.7 Q128.3 -47.05 133.1 -37.3 133.6 -36.25 132.6 -35.6 130.15 -34.1 129.25 -36.7 128.15 -39.8 124.7 -41.05 119.55 -42.85 114.2 -40.95 111.05 -39.85 108.35 -40.4 107.45 -40.6 107.8 -41.55 109.0 -44.8 112.9 -45.15 L116.2 -45.7 M114.35 -32.45 Q126.6 -31.6 131.4 -20.65 133.5 -15.9 128.95 -16.65 128.0 -16.8 127.8 -17.8 126.15 -25.45 118.25 -27.45 115.1 -28.25 112.95 -30.1 112.2 -30.7 112.8 -31.55 113.4 -32.45 114.35 -32.45 M93.75 -45.2 Q98.65 -46.3 101.1 -43.3 102.2 -42.0 100.9 -40.9 99.6 -39.8 98.15 -40.5 96.8 -41.15 95.2 -41.25 90.25 -41.65 93.05 -44.85 93.35 -45.2 93.75 -45.2 M119.25 4.7 Q134.65 4.15 141.95 16.6 144.2 20.45 142.8 24.55 142.5 25.5 141.7 26.25 139.3 28.5 138.75 25.2 138.45 23.1 138.9 21.0 139.4 18.8 138.05 17.0 132.3 9.45 122.45 8.8 111.3 8.0 103.15 15.1 102.45 15.7 102.1 14.8 100.5 11.15 104.9 8.75 111.6 5.1 119.25 4.7 M116.9 42.05 Q127.2 41.35 136.2 46.15 138.15 47.25 136.65 48.8 135.05 50.45 133.0 49.05 130.4 47.2 127.1 47.0 L116.2 45.55 Q114.85 45.25 115.05 43.85 115.25 42.2 116.9 42.05 M73.35 6.4 Q76.75 5.5 79.45 7.15 82.8 9.2 80.1 11.75 79.0 12.75 78.0 11.6 77.65 11.2 77.65 10.65 73.45 9.9 68.95 10.75 64.8 11.55 66.5 8.2 67.15 6.95 68.7 6.9 L73.35 6.4 M55.0 6.65 Q60.15 6.5 60.45 12.15 60.6 15.5 62.35 18.3 65.3 23.15 60.65 23.35 60.15 23.4 59.85 22.8 57.0 17.05 55.55 10.55 49.7 11.85 44.95 9.75 44.35 9.5 44.75 8.8 46.2 6.3 50.0 6.6 52.55 6.8 55.0 6.65 M28.1 6.65 Q38.4 6.7 41.9 15.6 42.15 16.2 41.4 16.3 38.35 16.75 36.15 14.05 32.15 9.15 25.8 11.05 18.8 13.1 13.75 17.55 13.4 17.85 13.1 17.35 11.05 13.85 15.15 11.35 21.2 7.75 28.1 6.65 M-18.1 6.15 Q-4.55 6.65 6.3 14.5 8.2 15.85 7.9 18.1 7.55 20.65 5.6 18.8 -3.75 9.9 -18.1 9.55 -20.35 9.5 -19.65 7.4 -19.25 6.2 -18.1 6.15 M32.75 23.85 Q35.9 26.3 33.85 30.9 30.85 37.75 23.1 34.4 18.05 32.2 19.35 26.75 20.45 22.3 23.55 25.8 24.2 26.55 23.7 27.5 22.0 30.95 26.15 31.25 31.3 31.65 30.95 26.1 30.8 24.1 32.75 23.85 M-116.9 -45.45 Q-107.35 -46.1 -103.75 -38.35 -103.25 -37.25 -104.45 -36.95 -107.0 -36.3 -108.35 -38.85 -108.7 -39.5 -109.6 -39.85 -120.0 -43.9 -129.05 -38.05 -129.8 -37.55 -130.2 -38.5 -131.45 -41.5 -127.85 -43.05 -122.6 -45.35 -116.9 -45.45 M-99.4 -45.45 Q-93.8 -45.95 -89.1 -44.1 -88.55 -43.85 -88.85 -43.15 -90.35 -40.15 -94.5 -41.35 L-95.15 -41.35 Q-99.8 -40.05 -100.85 -43.6 -101.25 -44.9 -99.8 -45.35 L-99.4 -45.45 M-74.55 -45.0 Q-70.3 -46.05 -70.45 -42.65 -70.45 -41.55 -71.6 -41.35 -77.7 -40.3 -83.25 -41.4 -83.95 -41.5 -83.8 -42.3 -83.3 -45.25 -79.6 -44.9 -77.0 -44.6 -74.55 -45.0 M-85.8 -30.75 Q-80.35 -31.65 -79.25 -27.65 -78.95 -26.7 -80.05 -26.65 -85.2 -26.5 -89.55 -28.15 -90.2 -28.4 -89.75 -29.1 -88.55 -31.25 -85.8 -30.75 M-118.8 -32.1 Q-108.4 -31.5 -104.25 -22.7 -102.3 -18.6 -106.35 -19.9 -107.4 -20.2 -107.75 -21.25 -109.1 -25.6 -113.75 -26.65 -117.75 -27.6 -120.25 -30.0 -120.9 -30.65 -120.2 -31.4 -119.6 -32.1 -118.8 -32.1 M-54.85 -44.85 Q-43.45 -46.5 -38.8 -37.1 -36.75 -32.9 -40.95 -33.9 -41.9 -34.1 -42.25 -35.1 -43.95 -40.0 -49.3 -40.5 -59.2 -41.45 -66.4 -35.5 -66.95 -35.0 -67.35 -35.8 -68.95 -39.1 -65.05 -41.25 -60.25 -43.9 -54.85 -44.85 M-57.55 -27.0 Q-54.7 -25.6 -55.25 -21.75 -55.3 -21.4 -54.8 -21.2 -50.15 -19.45 -47.95 -24.25 -46.95 -26.5 -45.4 -24.6 -44.15 -23.05 -45.4 -21.15 -46.9 -18.85 -49.45 -17.6 -55.3 -14.75 -58.65 -19.95 -60.2 -22.4 -59.5 -25.3 -59.15 -26.85 -57.55 -27.0 M-32.9 -44.85 Q-21.2 -46.75 -11.45 -41.0 -8.4 -39.2 -7.3 -35.7 -5.8 -30.85 -10.0 -30.05 -10.75 -29.9 -10.65 -30.65 -10.35 -34.0 -12.4 -36.5 -16.0 -40.95 -22.05 -40.6 -28.25 -40.3 -33.9 -41.75 -35.0 -42.05 -34.75 -43.25 -34.4 -44.75 -32.9 -44.85 M-22.9 -29.3 L-22.35 -29.15 -22.0 -29.0 -21.6 -28.75 Q-17.25 -29.15 -19.7 -25.75 -21.65 -23.0 -24.0 -25.4 -25.4 -26.85 -24.25 -28.5 -23.75 -29.25 -22.9 -29.3 M-21.7 21.3 Q-17.4 22.25 -20.65 24.95 -21.35 25.5 -22.4 25.6 -30.25 26.1 -37.5 24.05 -38.15 23.85 -37.95 23.0 -37.6 21.65 -36.15 21.65 -28.8 21.9 -21.7 21.3 M-33.6 4.7 Q-28.05 3.25 -25.5 6.75 -25.0 7.5 -25.85 7.85 -29.3 9.3 -33.4 9.2 -36.3 9.15 -39.15 9.9 -44.35 11.35 -46.8 15.25 L-47.55 16.25 Q-50.2 19.05 -50.45 15.3 -50.75 10.8 -46.4 8.65 -40.25 5.6 -33.6 4.7 M-40.2 23.85 Q-38.8 23.95 -38.55 25.25 -38.3 26.4 -38.55 27.6 L-38.65 29.05 Q-36.1 31.45 -32.5 31.95 -31.85 32.05 -32.1 32.8 -33.35 36.45 -38.1 34.3 -41.6 32.7 -42.3 29.2 -43.1 25.35 -40.2 23.85 M-7.25 25.75 Q-6.2 25.7 -5.6 26.5 -4.95 27.3 -5.35 28.25 L-5.5 29.35 Q-1.1 30.2 -4.65 33.35 -7.65 36.1 -8.75 32.7 -9.6 30.1 -9.05 27.4 -8.8 25.85 -7.25 25.75 M-54.15 7.5 Q-48.95 6.85 -50.25 10.7 -50.75 12.1 -52.3 11.85 L-58.0 11.5 -65.55 11.05 Q-67.25 10.8 -66.7 9.05 -66.15 7.45 -64.45 7.6 -59.15 8.15 -54.15 7.5 M-110.1 7.7 Q-102.9 7.15 -97.4 10.4 -97.6 10.05 -97.4 9.5 -97.0 8.2 -95.65 8.1 -89.25 7.45 -83.85 9.5 L-83.8 9.55 Q-83.7 8.85 -83.05 8.0 -82.65 7.5 -82.05 7.5 L-73.4 8.05 -73.25 8.0 -72.7 7.85 -72.1 8.35 -70.5 8.75 Q-69.8 8.95 -70.3 9.65 L-70.5 9.95 Q-67.45 13.3 -66.1 18.05 L-65.35 19.9 Q-62.9 24.9 -67.5 23.85 -68.2 23.7 -68.5 22.9 L-72.95 11.8 -76.65 12.0 -81.7 11.2 Q-83.1 10.95 -83.55 10.4 -84.9 12.7 -88.1 12.9 -92.95 13.25 -96.65 11.05 -96.6 11.35 -97.0 11.75 -98.9 13.65 -102.1 12.85 L-111.1 10.6 Q-112.15 10.3 -111.85 9.2 -111.5 7.8 -110.1 7.7 M-114.05 6.65 Q-109.55 8.85 -114.7 10.3 -118.95 11.5 -123.4 11.65 -125.95 11.75 -128.3 10.7 -130.95 9.6 -128.5 8.1 -126.65 6.95 -124.25 7.15 L-114.05 6.65 M-106.2 25.35 Q-102.95 28.15 -100.8 32.35 -98.25 37.35 -96.85 42.3 -96.65 43.05 -97.5 43.1 -100.3 43.3 -101.85 40.55 -105.45 33.9 -107.6 26.95 -107.95 25.75 -106.6 25.4 L-106.2 25.35" fill="#f3d691" fill-rule="evenodd" stroke="none"/>
  </g>
</svg>
