<?xml version="1.0" encoding="UTF-8" standalone="no"?>
<svg xmlns:xlink="http://www.w3.org/1999/xlink" height="12.25px" width="12.25px" xmlns="http://www.w3.org/2000/svg">
  <g transform="matrix(1.0, 0.0, 0.0, 1.0, 1.0, 1.0)">
    <path d="M6.15 1.35 L6.15 1.45 4.8 1.75 Q4.15 1.95 3.85 2.35 3.6 2.65 3.6 3.4 L3.8 4.65 4.2 5.05 4.95 5.75 6.6 6.55 7.5 6.75 7.95 6.55 8.4 6.2 8.65 4.95 8.65 3.45 8.6 2.75 8.25 2.15 7.6 1.6 Q7.1 1.3 6.15 1.35 M10.25 5.1 Q10.25 7.25 8.75 8.7 L8.7 8.75 Q7.2 10.25 5.15 10.25 3.0 10.25 1.5 8.7 0.0 7.25 0.0 5.1 0.0 3.0 1.5 1.45 3.0 0.0 5.15 0.0 7.2 0.0 8.7 1.45 L8.75 1.45 Q10.25 3.0 10.25 5.1" fill="#423a3a" fill-rule="evenodd" stroke="none"/>
    <path d="M6.15 1.35 Q7.1 1.3 7.6 1.6 L8.25 2.15 8.6 2.75 8.65 3.45 8.65 4.95 8.4 6.2 7.95 6.55 7.5 6.75 6.6 6.55 4.95 5.75 4.2 5.05 3.8 4.65 3.6 3.4 Q3.6 2.65 3.85 2.35 4.15 1.95 4.8 1.75 L6.15 1.45 6.15 1.35" fill="#6b6060" fill-rule="evenodd" stroke="none"/>
    <path d="M10.25 5.1 Q10.25 7.25 8.75 8.7 L8.7 8.75 Q7.2 10.25 5.15 10.25 3.0 10.25 1.5 8.7 0.0 7.25 0.0 5.1 0.0 3.0 1.5 1.45 3.0 0.0 5.15 0.0 7.2 0.0 8.7 1.45 L8.75 1.45 Q10.25 3.0 10.25 5.1 Z" fill="none" stroke="#1e1a1a" stroke-linecap="round" stroke-linejoin="round" stroke-width="2.0"/>
  </g>
</svg>
